<?xml version="1.0" encoding="UTF-8" standalone="no"?>
<svg
   xmlns:dc="http://purl.org/dc/elements/1.1/"
   xmlns:cc="http://creativecommons.org/ns#"
   xmlns:rdf="http://www.w3.org/1999/02/22-rdf-syntax-ns#"
   xmlns:svg="http://www.w3.org/2000/svg"
   xmlns="http://www.w3.org/2000/svg"
   xmlns:sodipodi="http://sodipodi.sourceforge.net/DTD/sodipodi-0.dtd"
   xmlns:inkscape="http://www.inkscape.org/namespaces/inkscape"
   width="264.58334mm"
   height="148.96042mm"
   viewBox="0 0 264.58334 148.96042"
   version="1.1"
   id="svg8"
   inkscape:version="1.0.1 (3bc2e813f5, 2020-09-07)"
   sodipodi:docname="Flag of L'Manberg.svg">
  <defs
     id="defs2" />
  <sodipodi:namedview
     id="base"
     pagecolor="#ffffff"
     bordercolor="#666666"
     borderopacity="1.0"
     inkscape:pageopacity="0.0"
     inkscape:pageshadow="2"
     inkscape:zoom="0.35"
     inkscape:cx="501.31282"
     inkscape:cy="730.69322"
     inkscape:document-units="mm"
     inkscape:current-layer="layer1"
     inkscape:document-rotation="0"
     showgrid="false"
     fit-margin-top="0"
     fit-margin-left="0"
     fit-margin-right="0"
     fit-margin-bottom="0"
     inkscape:window-width="1920"
     inkscape:window-height="986"
     inkscape:window-x="-11"
     inkscape:window-y="-11"
     inkscape:window-maximized="1" />
  <metadata
     id="metadata5">
    <rdf:RDF>
      <cc:Work
         rdf:about="">
        <dc:format>image/svg+xml</dc:format>
        <dc:type
           rdf:resource="http://purl.org/dc/dcmitype/StillImage" />
        <dc:title></dc:title>
      </cc:Work>
    </rdf:RDF>
  </metadata>
  <g
     inkscape:label="Layer 1"
     inkscape:groupmode="layer"
     id="layer1"
     transform="translate(300.86898,22.251355)">
    <path
       id="rect24"
       style="fill:#000000;fill-opacity:1;fill-rule:evenodd;stroke-width:0.999999"
       d="M -1137.1426,-84.099609 V 121.21875 273.58008 478.90039 h 123.0215 c 0.8702,-0.38904 1.6746,-0.73937 2.5137,-1.11133 0.8391,-0.37196 1.7129,-0.76557 2.7246,-1.24218 3.9093,-1.84179 8.3219,-4.01499 13.13671,-6.53516 4.81484,-2.52017 10.03302,-5.38836 15.55468,-8.61914 5.52167,-3.23078 11.34723,-6.82521 17.37696,-10.79883 6.02972,-3.97362 12.26253,-8.32553 18.60156,-13.07422 6.33903,-4.74869 12.7848,-9.89323 19.23437,-15.44922 3.22479,-2.77799 6.45087,-5.65867 9.66602,-8.64453 3.21515,-2.98586 6.41893,-6.07763 9.59961,-9.27539 3.18068,-3.19776 6.33763,-6.50236 9.45898,-9.91601 3.12136,-3.41368 6.20695,-6.93669 9.24414,-10.57032 3.0372,-3.63363 6.02495,-7.37676 8.95313,-11.23437 2.92818,-3.85762 5.79552,-7.82844 8.58984,-11.91407 2.79433,-4.0856 5.51672,-8.2878 8.15235,-12.60546 2.63562,-4.31766 5.18463,-8.75097 7.63672,-13.30469 2.45208,-4.55373 4.80708,-9.22767 7.05078,-14.02149 2.24369,-4.79382 4.37626,-9.70815 6.38672,-14.74609 2.01046,-5.03794 3.898,-10.19828 5.65039,-15.48437 1.75238,-5.2861 3.37038,-10.69806 4.83984,-16.23633 1.46946,-5.53828 2.79145,-11.20357 3.95312,-16.99805 1.1617,-5.79448 2.16311,-11.71872 2.99219,-17.77344 0.82908,-6.05472 1.48541,-12.2396 1.95703,-18.55859 0.47162,-6.31899 0.75834,-12.77209 0.84766,-19.35938 0.0893,-6.58482 -0.0247,-13.03615 -0.32812,-19.35742 -0.30342,-6.32127 -0.79585,-12.51082 -1.4668,-18.57226 -0.67095,-6.06145 -1.51989,-11.99544 -2.5332,-17.80078 -1.01334,-5.80535 -2.19092,-11.48218 -3.52149,-17.03516 -1.33057,-5.55298 -2.81486,-10.98082 -4.4375,-16.28516 -1.62264,-5.30433 -3.38388,-10.4855 -5.27344,-15.544919 -1.88956,-5.059422 -3.90578,-9.998171 -6.03711,-14.816406 -2.13132,-4.818235 -4.37862,-9.516881 -6.72656,-14.097656 -2.34793,-4.580776 -4.79655,-9.043582 -7.33594,-13.390625 -2.53939,-4.347044 -5.16931,-8.578273 -7.875,-12.695313 -2.70569,-4.117039 -5.48715,-8.119003 -8.33398,-12.009765 -2.84683,-3.890763 -5.75788,-7.669678 -8.7207,-11.337891 -2.96283,-3.668213 -5.9776,-7.22639 -9.03125,-10.6757812 -3.05366,-3.4493912 -6.1463,-6.7910939 -9.26563,-10.0253907 -3.11933,-3.2342965 -6.26592,-6.3618368 -9.42578,-9.3847651 -3.15986,-3.02293 -6.33454,-5.940569 -9.50977,-8.75586 -6.35044,-5.630581 -12.7058,-10.849487 -18.96679,-15.671875 -6.26099,-4.822388 -12.4262,-9.248953 -18.39649,-13.292969 -5.97028,-4.044015 -11.74626,-7.704537 -17.22461,-11 -5.47834,-3.295463 -10.66015,-6.22405 -15.44531,-8.800781 -4.78516,-2.57673 -9.17376,-4.801635 -13.06443,-6.689453 -3.8908,-1.887818 -7.2831,-3.439244 -10.0781,-4.667969 -5.5778,-2.452013 -8.7535,-3.613978 -8.7676,-3.61914 z"
       transform="scale(0.26458333)" />
    <path
       id="path51"
       style="fill:#fff700;fill-opacity:1;fill-rule:evenodd;stroke-width:0.999999"
       d="m -1021.7656,-84.099609 c 0.014,0.0052 3.1898,1.167127 8.7676,3.61914 2.795,1.228725 6.1873,2.780151 10.0781,4.667969 3.89061,1.887818 8.27927,4.112723 13.06443,6.689453 4.78516,2.576731 9.96697,5.505318 15.44531,8.800781 5.47835,3.295463 11.25433,6.955985 17.22461,11 5.97029,4.044016 12.1355,8.470581 18.39649,13.292969 6.26099,4.822388 12.61635,10.041294 18.96679,15.671875 3.17523,2.815291 6.34991,5.73293 9.50977,8.75586 3.15986,3.0229268 6.30645,6.1504689 9.42578,9.3847651 3.11933,3.2342968 6.21197,6.5759995 9.26563,10.0253907 3.05365,3.4493912 6.06842,7.0075682 9.03125,10.6757812 2.96282,3.668213 5.87387,7.447128 8.7207,11.337891 2.84683,3.890762 5.62829,7.892726 8.33398,12.009765 2.70569,4.11704 5.33561,8.348269 7.875,12.695313 2.53939,4.347043 4.98801,8.809849 7.33594,13.390625 2.34794,4.580775 4.59524,9.279421 6.72656,14.097656 2.13133,4.818235 4.14755,9.756984 6.03711,14.816406 1.88956,5.059419 3.6508,10.240589 5.27344,15.544919 0.88101,2.87999 1.61355,5.88877 2.41016,8.8418 h 0.12695 c 0.66218,2.45686 1.2995,4.9356 1.90039,7.44336 1.33057,5.55298 2.50815,11.22981 3.52149,17.03516 1.01328,5.80534 1.86225,11.73933 2.5332,17.80078 0.67095,6.06144 1.16338,12.25099 1.4668,18.57226 0.30336,6.32127 0.41741,12.7726 0.32812,19.35742 -0.0893,6.58729 -0.37604,13.04039 -0.84766,19.35938 -0.47162,6.31899 -1.12795,12.50387 -1.95703,18.55859 -0.82908,6.05472 -1.83049,11.97896 -2.99219,17.77344 -1.1243,5.60819 -2.40142,11.0928 -3.81445,16.46094 h -0.0137 c -0.0461,0.17526 -0.0786,0.3621 -0.125,0.53711 -1.46946,5.53827 -3.08746,10.95023 -4.83984,16.23633 -1.75239,5.28609 -3.63993,10.44643 -5.65039,15.48437 -2.01046,5.03794 -4.14303,9.95227 -6.38672,14.74609 -2.2437,4.79382 -4.5987,9.46776 -7.05078,14.02149 -2.45209,4.55372 -5.0011,8.98703 -7.63672,13.30469 -2.63563,4.31766 -5.35802,8.51987 -8.15235,12.60546 -2.79432,4.08563 -5.66166,8.05645 -8.58984,11.91407 -2.92818,3.85761 -5.91593,7.60074 -8.95313,11.23437 -3.03719,3.63363 -6.12278,7.15664 -9.24414,10.57032 -3.12135,3.41364 -6.2783,6.71825 -9.45898,9.91601 -3.18068,3.19776 -6.38446,6.28953 -9.59961,9.27539 -3.21515,2.98586 -6.44123,5.86654 -9.66602,8.64453 -6.44957,5.55599 -12.89534,10.70053 -19.23437,15.44922 -6.33903,4.74869 -12.57184,9.1006 -18.60156,13.07422 -6.02973,3.97362 -11.85529,7.56805 -17.37696,10.79883 -5.52166,3.23078 -10.73984,6.09897 -15.55468,8.61914 -4.81478,2.52017 -9.22738,4.69337 -13.13668,6.53516 -2.0233,0.95322 -3.498,1.57543 -5.2383,2.35351 h 32.71091 c 1.61267,-0.77805 2.97873,-1.4003 4.85352,-2.35351 3.62206,-1.84165 7.70942,-4.01516 12.16992,-6.53516 4.4605,-2.52001 9.29373,-5.38658 14.4082,-8.61719 5.11448,-3.23061 10.50976,-6.82538 16.09375,-10.79883 5.584,-3.97345 11.35751,-8.32568 17.22657,-13.07422 5.86906,-4.74853 11.83502,-9.89336 17.80468,-15.44921 2.98484,-2.77793 5.96992,-5.65873 8.94532,-8.64454 2.97539,-2.9858 5.93991,-6.07572 8.88281,-9.27343 2.9429,-3.19771 5.8646,-6.50237 8.75195,-9.91602 2.88736,-3.41364 5.74008,-6.9367 8.54883,-10.57031 2.80875,-3.63361 5.57222,-7.37872 8.2793,-11.23633 2.70708,-3.85761 5.35904,-7.82648 7.9414,-11.91211 2.58236,-4.08563 5.09667,-8.28778 7.53125,-12.60547 2.43459,-4.31769 4.78899,-8.75093 7.05274,-13.30468 2.26374,-4.55378 4.43601,-9.2276 6.50586,-14.02149 2.06985,-4.79389 4.03772,-9.70806 5.89062,-14.74609 1.8529,-5.03804 3.59023,-10.20012 5.20313,-15.48633 1.61289,-5.28622 3.10134,-10.69791 4.45117,-16.23633 1.34983,-5.53842 2.56129,-11.20339 3.625,-16.99805 1.0637,-5.79465 1.97985,-11.71851 2.73437,-17.77343 0.75453,-6.05493 1.34725,-12.24133 1.76954,-18.56055 0.42228,-6.31922 0.67324,-12.77183 0.74023,-19.35938 0.067,-6.58482 -0.0506,-13.03615 -0.3418,-19.35742 -0.29124,-6.32127 -0.75634,-12.51082 -1.38281,-18.57226 -0.62647,-6.06145 -1.41484,-11.99544 -2.35351,-17.80078 -0.93872,-5.80535 -2.02787,-11.48218 -3.25586,-17.03516 -1.228,-5.55298 -2.59555,-10.98082 -4.08985,-16.28516 -1.4943,-5.30433 -3.11588,-10.4855 -4.85351,-15.544919 -1.73763,-5.059422 -3.59085,-9.998171 -5.54883,-14.816406 -1.95799,-4.818235 -4.02042,-9.516881 -6.17578,-14.097656 -2.15537,-4.580776 -4.40266,-9.043582 -6.73243,-13.390625 -2.32972,-4.347044 -4.74146,-8.578273 -7.22265,-12.695313 -2.4812,-4.117039 -5.03293,-8.119003 -7.64258,-12.009765 -2.60965,-3.890763 -5.27706,-7.669678 -7.99219,-11.337891 -2.71513,-3.668213 -5.47775,-7.22639 -8.27539,-10.6757812 -2.79763,-3.4493912 -5.63112,-6.7910939 -8.48828,-10.0253907 -2.85716,-3.2342963 -5.73714,-6.3618378 -8.63086,-9.3847651 -2.89372,-3.02293 -5.79973,-5.940569 -8.70703,-8.75586 -5.8146,-5.630581 -11.63417,-10.849487 -17.36523,-15.671875 -5.73107,-4.822388 -11.37415,-9.248953 -16.83789,-13.292969 -5.46374,-4.044015 -10.74911,-7.704537 -15.76172,-11 -5.01262,-3.295463 -9.75317,-6.22405 -14.13086,-8.800781 -4.37769,-2.57673 -8.39221,-4.801635 -11.95117,-6.689453 -3.55897,-1.887818 -6.66231,-3.439244 -9.21875,-4.667969 -5.10173,-2.452089 -8.00681,-3.61405 -8.01954,-3.61914 z"
       transform="scale(0.26458333)" />
    <path
       id="path61"
       style="fill:#ffffff;fill-opacity:1;fill-rule:evenodd;stroke-width:0.999999"
       d="m -986.97852,-84.099609 c 0.0127,0.0051 2.91781,1.167051 8.01954,3.61914 2.55644,1.228725 5.65978,2.780151 9.21875,4.667969 3.55896,1.887818 7.57348,4.112723 11.95117,6.689453 4.37769,2.576731 9.11824,5.505318 14.13086,8.800781 5.01261,3.295463 10.29798,6.955985 15.76172,11 5.46374,4.044016 11.10682,8.470581 16.83789,13.292969 5.73106,4.822388 11.55063,10.041294 17.36523,15.671875 2.9073,2.815291 5.81331,5.73293 8.70703,8.75586 2.89372,3.0229293 5.7737,6.1504684 8.63086,9.3847651 2.85716,3.2342968 5.69065,6.5759995 8.48828,10.0253907 2.79764,3.4493912 5.56026,7.0075682 8.27539,10.6757812 2.71513,3.668213 5.38254,7.447128 7.99219,11.337891 2.60965,3.890762 5.16138,7.892726 7.64258,12.009765 2.48119,4.11704 4.89289,8.348269 7.22265,12.695313 2.32977,4.347043 4.57706,8.809849 6.73243,13.390625 2.15536,4.580775 4.21779,9.279421 6.17578,14.097656 1.95798,4.818235 3.8112,9.756984 5.54883,14.816406 1.73763,5.059419 3.35921,10.240589 4.85351,15.544919 1.4943,5.30434 2.86185,10.73218 4.08985,16.28516 1.22799,5.55298 2.31714,11.22981 3.25586,17.03516 0.93871,5.80534 1.72704,11.73933 2.35351,17.80078 0.62647,6.06144 1.09157,12.25099 1.38281,18.57226 0.29124,6.32127 0.40876,12.7726 0.3418,19.35742 -0.067,6.58755 -0.31795,13.04016 -0.74023,19.35938 -0.42229,6.31922 -1.01501,12.50562 -1.76954,18.56055 -0.75452,6.05492 -1.67067,11.97878 -2.73437,17.77343 -1.06371,5.79466 -2.27517,11.45963 -3.625,16.99805 -1.34983,5.53842 -2.83828,10.95011 -4.45117,16.23633 -1.6129,5.28621 -3.35023,10.44829 -5.20313,15.48633 -1.8529,5.03803 -3.82077,9.9522 -5.89062,14.74609 -2.06985,4.79389 -4.24212,9.46771 -6.50586,14.02149 -2.26375,4.55377 -4.61815,8.98699 -7.05274,13.30468 -2.43458,4.31769 -4.94889,8.51984 -7.53125,12.60547 -2.58236,4.08563 -5.23432,8.0545 -7.9414,11.91211 -2.70708,3.85761 -5.47055,7.60272 -8.2793,11.23633 -2.80875,3.63361 -5.66147,7.15667 -8.54883,10.57031 -2.88735,3.41365 -5.80905,6.71831 -8.75195,9.91602 -2.9429,3.19771 -5.90742,6.28763 -8.88281,9.27343 -2.9754,2.98581 -5.96048,5.86661 -8.94532,8.64454 -5.96966,5.55585 -11.93562,10.70068 -17.80468,15.44921 -5.86906,4.74854 -11.64257,9.10077 -17.22657,13.07422 -5.58399,3.97345 -10.97927,7.56822 -16.09375,10.79883 -5.11447,3.23061 -9.9477,6.09718 -14.4082,8.61719 -4.4605,2.52 -8.54786,4.69351 -12.16992,6.53516 -1.87479,0.95323 -3.24085,1.57546 -4.85352,2.35351 h 844.26758 V -84.099609 Z"
       transform="scale(0.26458333)" />
    <path
       id="path58"
       style="fill:#000378;fill-opacity:1;stroke-width:0.992232"
       d="m -986.97852,-84.099609 c 0.0127,0.0051 2.91781,1.167051 8.01954,3.61914 2.55644,1.228725 5.65978,2.780151 9.21875,4.667969 3.55896,1.887818 7.57348,4.112723 11.95117,6.689453 4.37769,2.576731 9.11824,5.505318 14.13086,8.800781 5.01261,3.295463 10.29798,6.955985 15.76172,11 5.46374,4.044016 11.10682,8.470581 16.83789,13.292969 5.73106,4.822388 11.55063,10.041294 17.36523,15.671875 2.9073,2.815291 5.81331,5.73293 8.70703,8.75586 2.89372,3.0229293 5.7737,6.1504684 8.63086,9.3847651 2.85716,3.2342968 5.69065,6.5759995 8.48828,10.0253907 2.79764,3.4493912 5.56026,7.0075682 8.27539,10.6757812 2.71513,3.668213 5.38254,7.447128 7.99219,11.337891 2.60965,3.890762 5.16138,7.892726 7.64258,12.009765 2.48119,4.11704 4.89289,8.348269 7.22265,12.695313 2.32977,4.347043 4.57706,8.809849 6.73243,13.390625 2.15536,4.580775 4.21779,9.279421 6.17578,14.097656 1.95798,4.818235 3.8112,9.756984 5.54883,14.816406 1.73763,5.059419 3.35921,10.240589 4.85351,15.544919 0.81132,2.87993 1.48634,5.88883 2.22071,8.8418 h 674.06054 V -84.099609 Z"
       transform="scale(0.26458333)" />
    <path
       id="path64"
       style="fill:#8b0a21;fill-opacity:1;stroke-width:0.992232"
       d="m -810.75391,273.58008 c -0.0425,0.17591 -0.0724,0.3634 -0.11523,0.53906 -1.34983,5.53842 -2.83828,10.95011 -4.45117,16.23633 -1.6129,5.28621 -3.35023,10.44829 -5.20313,15.48633 -1.8529,5.03803 -3.82077,9.9522 -5.89062,14.74609 -2.06985,4.79389 -4.24212,9.46771 -6.50586,14.02149 -2.26375,4.55377 -4.61815,8.98699 -7.05274,13.30468 -2.43458,4.31769 -4.94889,8.51984 -7.53125,12.60547 -2.58236,4.08563 -5.23432,8.0545 -7.9414,11.91211 -2.70708,3.85761 -5.47055,7.60272 -8.2793,11.23633 -2.80875,3.63361 -5.66147,7.15667 -8.54883,10.57031 -2.88735,3.41365 -5.80905,6.71831 -8.75195,9.91602 -2.9429,3.19771 -5.90742,6.28763 -8.88281,9.27343 -2.9754,2.98581 -5.96048,5.86661 -8.94532,8.64454 -5.96966,5.55585 -11.93562,10.70068 -17.80468,15.44921 -5.86906,4.74854 -11.64257,9.10077 -17.22657,13.07422 -5.58399,3.97345 -10.97927,7.56822 -16.09375,10.79883 -5.11447,3.23061 -9.9477,6.09718 -14.4082,8.61719 -4.4605,2.52 -8.54786,4.69351 -12.16992,6.53516 -1.87479,0.95323 -3.24085,1.57546 -4.85352,2.35351 h 844.26758 V 273.58008 Z"
       transform="scale(0.26458333)" />
    <g
       id="g923"
       transform="translate(0,-165.95809)">
      <path
         id="path88"
         style="fill:#8b0a21;fill-opacity:1;stroke:none;stroke-width:0.999999px;stroke-linecap:butt;stroke-linejoin:miter;stroke-opacity:1"
         d="m -675.71484,753.57227 -31.42774,32.85546 38.92578,38.42383 -38.92578,39.4336 31.42774,31.42968 39.38672,-39.38672 39.90039,39.38672 L -565,864.28516 -604.64258,824.64258 -565,785 l -32.85742,-31.42773 -38.67578,39.18164 z"
         transform="scale(0.26458333)" />
      <path
         id="path916"
         style="fill:#8b0a21;fill-opacity:1;stroke:none;stroke-width:0.264583px;stroke-linecap:butt;stroke-linejoin:miter;stroke-opacity:1"
         d="m -93.171275,199.38266 -8.315255,8.69301 10.299111,10.1663 -10.299111,10.43348 8.315255,8.31577 10.42107,-10.42107 10.556978,10.42107 8.315253,-8.31577 -10.488766,-10.48877 10.488766,-10.48877 -8.693526,-8.31525 -10.232966,10.36681 z" />
      <path
         id="path918"
         style="fill:#fff603;fill-opacity:1;stroke:none;stroke-width:0.264583px;stroke-linecap:butt;stroke-linejoin:miter;stroke-opacity:1"
         d="m -267.98526,199.38266 -8.31526,8.69301 10.29911,10.1663 -10.29911,10.43348 8.31526,8.31577 10.42107,-10.42107 10.55697,10.42107 8.31526,-8.31577 -10.48877,-10.48877 10.48877,-10.48877 -8.69353,-8.31525 -10.23296,10.36681 z" />
    </g>
  </g>
</svg>
